<svg width="138" height="119" viewBox="0 0 138 119" fill="none" xmlns="http://www.w3.org/2000/svg">
<path d="M114.344 111.76C110.76 112.699 107.56 113.168 104.744 113.168C102.013 113.168 99.5813 112.997 97.448 112.656C95.3147 112.315 93.0107 111.632 90.536 110.608C88.1467 109.669 85.8853 108.56 83.752 107.28C81.6187 106 79.4853 104.421 77.352 102.544C73.4267 99.3867 69.8427 95.9734 66.6 92.304C63.4427 88.6347 57.2987 81.7654 48.168 71.696C47.6498 71.1197 47.1414 70.5544 46.643 70H57.6895C67.1568 80.375 73.4977 87.1697 76.712 90.384C80.8933 94.5654 84.5627 97.9787 87.72 100.624C90.9627 103.355 93.8213 105.36 96.296 106.64C101.331 109.371 106.323 110.736 111.272 110.736C112.296 110.736 113.32 110.651 114.344 110.48V111.76Z" fill="#0F172A" fill-opacity="0.78"/>
<path d="M50.6 25.104C50.6 29.9623 49.5463 33.9276 47.439 37H56.9692C59.1231 33.0062 60.2 28.5289 60.2 23.568C60.2 16.5707 57.896 10.9814 53.288 6.80003C48.7653 2.53336 42.7493 0.400024 35.24 0.400024H0.679993V1.68002H2.34399C4.56266 1.68002 6.43999 2.49069 7.97599 4.11203C9.59733 5.64803 10.4507 7.52536 10.536 9.74403V37H18.856V4.36803H34.728C39.7627 4.45336 43.6453 6.37336 46.376 10.128C49.192 13.8827 50.6 18.8747 50.6 25.104Z" fill="#0F172A" fill-opacity="0.78"/>
<path d="M18.856 57H10.536V80.784C10.4507 83.0027 9.59733 84.88 7.97599 86.416C6.35466 87.952 4.47733 88.72 2.34399 88.72H0.679993V90H28.712L28.584 88.72H27.048C24.744 88.72 22.7813 87.9094 21.16 86.288C19.624 84.6667 18.856 82.7894 18.856 80.656V57Z" fill="#0F172A" fill-opacity="0.78"/>
<path d="M125.112 106.504C133.048 98.2267 137.016 86.7494 137.016 72.072C137.016 71.048 136.973 70.024 136.888 69H135.608C135.608 83.2507 131.597 94.472 123.576 102.664C115.64 110.856 105.357 114.952 92.728 114.952C80.0987 114.952 69.8587 110.856 62.008 102.664C54.2427 94.3867 50.36 84.1467 50.36 71.944C50.36 71.29 50.3708 70.642 50.3924 70H40.8053C40.7751 70.7273 40.76 71.4607 40.76 72.2C40.76 80.904 42.8933 88.7974 47.16 95.88C51.512 102.963 57.5707 108.552 65.336 112.648C73.1867 116.744 81.976 118.792 91.704 118.792C106.125 118.792 117.261 114.696 125.112 106.504Z" fill="#0F172A" fill-opacity="0.78"/>
<path d="M56.9531 37H66.7057C73.3179 31.9654 81.096 29.448 90.04 29.448C97.976 29.448 105.187 31.496 111.672 35.592C118.157 39.6027 122.296 45.192 124.088 52.36H125.24L122.68 34.312C118.669 31.6667 113.635 29.576 107.576 28.04C101.603 26.4187 95.7147 25.608 89.912 25.608C80.696 25.608 72.3333 27.656 64.824 31.752C61.9654 33.2788 59.3418 35.0281 56.9531 37Z" fill="#0F172A" fill-opacity="0.78"/>
<path d="M4.75391 44.1973H6.20898C6.91211 44.1973 7.42318 43.9922 7.74219 43.582C8.0612 43.1654 8.2207 42.5176 8.2207 41.6387C8.2207 41.1504 8.17188 40.7467 8.07422 40.4277C7.98307 40.1022 7.83333 39.8516 7.625 39.6758C7.42318 39.5 7.1888 39.3796 6.92188 39.3145C6.65495 39.2428 6.31966 39.207 5.91602 39.207H4.75391C4.69531 39.207 4.66602 39.2624 4.66602 39.373V43.9824C4.66602 44.1257 4.69531 44.1973 4.75391 44.1973ZM3.32812 52C3.25 52 3.19141 51.974 3.15234 51.9219C3.11328 51.8633 3.09375 51.7461 3.09375 51.5703V38.4062C3.09375 38.276 3.10352 38.1784 3.12305 38.1133C3.14909 38.0417 3.17513 37.9993 3.20117 37.9863C3.23372 37.9668 3.27604 37.957 3.32812 37.957H6.29688C6.60286 37.957 6.86654 37.9668 7.08789 37.9863C7.31576 37.9993 7.55664 38.0384 7.81055 38.1035C8.07096 38.1621 8.29232 38.2435 8.47461 38.3477C8.6569 38.4518 8.83594 38.5951 9.01172 38.7773C9.1875 38.9531 9.32747 39.168 9.43164 39.4219C9.54232 39.6758 9.63021 39.985 9.69531 40.3496C9.76042 40.7142 9.79297 41.1276 9.79297 41.5898C9.79297 42.2279 9.72135 42.7617 9.57812 43.1914C9.4349 43.6211 9.25586 43.9401 9.04102 44.1484C8.82617 44.3503 8.55273 44.5195 8.2207 44.6562C8.19466 44.6823 8.18164 44.7051 8.18164 44.7246C8.18164 44.7507 8.19141 44.7637 8.21094 44.7637C8.40625 44.8548 8.55924 44.9362 8.66992 45.0078C8.78711 45.0729 8.92057 45.1836 9.07031 45.3398C9.22656 45.4961 9.34701 45.6719 9.43164 45.8672C9.51628 46.056 9.59115 46.3132 9.65625 46.6387C9.72786 46.9642 9.77018 47.3418 9.7832 47.7715C9.79622 48.123 9.80273 49.3633 9.80273 51.4922C9.80273 51.8307 9.73763 52 9.60742 52C8.85221 52.0065 8.4681 52.0098 8.45508 52.0098C8.33138 52.0098 8.26953 51.8503 8.26953 51.5312C8.26302 51.4727 8.24674 50.7435 8.2207 49.3438C8.20117 47.944 8.17513 47.1725 8.14258 47.0293C8.09701 45.9616 7.5599 45.4277 6.53125 45.4277H4.76367C4.69857 45.4277 4.66602 45.4896 4.66602 45.6133V51.5703C4.66602 51.7461 4.64648 51.8633 4.60742 51.9219C4.56836 51.974 4.50651 52 4.42188 52H3.32812Z" fill="#0F172A" fill-opacity="0.78"/>
<path d="M15.9582 52.1074C15.6327 52.1074 15.3495 52.0586 15.1086 51.9609C14.8677 51.8568 14.6431 51.6777 14.4348 51.4238C14.2329 51.1634 14.0767 50.7793 13.966 50.2715C13.8618 49.7572 13.8098 49.1191 13.8098 48.3574V42.6641C13.8098 42.4688 13.8293 42.3385 13.8684 42.2734C13.9074 42.2083 13.966 42.1758 14.0441 42.1758H14.8938C14.9784 42.1758 15.0402 42.2083 15.0793 42.2734C15.1184 42.3385 15.1379 42.4688 15.1379 42.6641V48.709C15.1379 49.5553 15.2258 50.151 15.4016 50.4961C15.5839 50.8346 15.8508 51.0039 16.2023 51.0039C16.619 51.0039 16.9673 50.724 17.2473 50.1641C17.5272 49.5977 17.6672 48.9694 17.6672 48.2793V42.6641C17.6672 42.4688 17.6867 42.3385 17.7258 42.2734C17.7648 42.2083 17.8267 42.1758 17.9113 42.1758H18.7512C18.8358 42.1758 18.8977 42.2083 18.9367 42.2734C18.9758 42.3385 18.9953 42.4688 18.9953 42.6641V51.3848C18.9953 51.7949 18.9204 52 18.7707 52H18.5754C18.4842 52 18.4126 51.9707 18.3605 51.9121C18.315 51.8535 18.2759 51.7201 18.2434 51.5117L18.0676 50.1348C18.0546 50.0501 18.0318 50.0078 17.9992 50.0078C17.9862 50.0078 17.9667 50.0534 17.9406 50.1445C17.7714 50.8411 17.5077 51.3424 17.1496 51.6484C16.7915 51.9544 16.3944 52.1074 15.9582 52.1074Z" fill="#0F172A" fill-opacity="0.78"/>
<path d="M24.0082 46.5117H26.6059C26.6189 46.5117 26.6254 46.4531 26.6254 46.3359C26.5863 45.2357 26.4659 44.4316 26.2641 43.9238C26.0622 43.4095 25.7497 43.1523 25.3266 43.1523C24.5388 43.1523 24.0896 44.0964 23.9789 45.9844C23.9789 46.3359 23.9887 46.5117 24.0082 46.5117ZM27.7094 49.5977C27.7094 50.3203 27.5173 50.9193 27.1332 51.3945C26.7556 51.8698 26.1924 52.1074 25.4438 52.1074C23.5362 52.1074 22.5824 50.431 22.5824 47.0781C22.5824 46.2513 22.6378 45.5286 22.7484 44.9102C22.8656 44.2852 23.0121 43.7969 23.1879 43.4453C23.3637 43.0872 23.5785 42.8008 23.8324 42.5859C24.0863 42.3646 24.3305 42.2214 24.5648 42.1562C24.8057 42.0846 25.0661 42.0488 25.3461 42.0488C26.9737 42.0488 27.7875 43.5918 27.7875 46.6777C27.7875 47.1465 27.6898 47.3809 27.4945 47.3809H24.0375C23.9919 47.3809 23.9691 47.4492 23.9691 47.5859C23.9691 48.2305 24.018 48.8001 24.1156 49.2949C24.2133 49.7897 24.3793 50.1999 24.6137 50.5254C24.8546 50.8444 25.1508 51.0039 25.5023 51.0039C25.7432 51.0039 25.9451 50.9486 26.1078 50.8379C26.2771 50.7207 26.4008 50.5547 26.4789 50.3398C26.5635 50.125 26.6189 49.9427 26.6449 49.793C26.6775 49.6367 26.7068 49.4382 26.7328 49.1973C26.7458 49.0671 26.7882 49.002 26.8598 49.002H27.5238C27.6475 49.002 27.7094 49.1354 27.7094 49.4023V49.5977Z" fill="#0F172A" fill-opacity="0.78"/>
<path d="M33.191 49.8711C33.4645 50.6263 33.8095 51.0039 34.2262 51.0039C34.6428 51.0039 34.9684 50.6816 35.2027 50.0371C35.4436 49.3926 35.5641 48.39 35.5641 47.0293C35.5641 45.7467 35.4436 44.7832 35.2027 44.1387C34.9684 43.4876 34.6494 43.1621 34.2457 43.1621C33.8355 43.1621 33.4872 43.5202 33.2008 44.2363C32.9208 44.9525 32.7809 45.8835 32.7809 47.0293C32.7809 48.1621 32.9176 49.1094 33.191 49.8711ZM34.4898 52.1074C33.4807 52.1074 32.7874 51.4206 32.4098 50.0469C32.3967 50.0143 32.3837 49.998 32.3707 49.998C32.3447 49.998 32.3089 50.1673 32.2633 50.5059C32.2242 50.8379 32.1689 51.1699 32.0973 51.502C32.0257 51.834 31.941 52 31.8434 52H31.648C31.5178 52 31.4527 51.8079 31.4527 51.4238V38.6504C31.4527 38.1882 31.5341 37.957 31.6969 37.957H32.5465C32.6181 37.957 32.6734 38.0221 32.7125 38.1523C32.7581 38.276 32.7809 38.4421 32.7809 38.6504V43.5332C32.7809 43.6178 32.7939 43.6602 32.8199 43.6602L32.8688 43.6113C33.0576 43.097 33.3049 42.7096 33.6109 42.4492C33.9234 42.1888 34.2587 42.0586 34.6168 42.0586C34.9293 42.0586 35.2158 42.1432 35.4762 42.3125C35.7366 42.4753 35.9775 42.7422 36.1988 43.1133C36.4267 43.4779 36.6057 44.002 36.7359 44.6855C36.8661 45.3626 36.9313 46.1699 36.9313 47.1074C36.9313 47.8301 36.8824 48.4811 36.7848 49.0605C36.6936 49.6335 36.5667 50.1087 36.4039 50.4863C36.2477 50.8574 36.0621 51.1699 35.8473 51.4238C35.6324 51.6712 35.4111 51.847 35.1832 51.9512C34.9619 52.0553 34.7307 52.1074 34.4898 52.1074Z" fill="#0F172A" fill-opacity="0.78"/>
<path d="M41.7098 46.5117H44.3074C44.3204 46.5117 44.327 46.4531 44.327 46.3359C44.2879 45.2357 44.1674 44.4316 43.9656 43.9238C43.7638 43.4095 43.4513 43.1523 43.0281 43.1523C42.2404 43.1523 41.7911 44.0964 41.6805 45.9844C41.6805 46.3359 41.6902 46.5117 41.7098 46.5117ZM45.4109 49.5977C45.4109 50.3203 45.2189 50.9193 44.8348 51.3945C44.4572 51.8698 43.894 52.1074 43.1453 52.1074C41.2378 52.1074 40.284 50.431 40.284 47.0781C40.284 46.2513 40.3393 45.5286 40.45 44.9102C40.5672 44.2852 40.7137 43.7969 40.8895 43.4453C41.0652 43.0872 41.2801 42.8008 41.534 42.5859C41.7879 42.3646 42.032 42.2214 42.2664 42.1562C42.5073 42.0846 42.7677 42.0488 43.0477 42.0488C44.6753 42.0488 45.4891 43.5918 45.4891 46.6777C45.4891 47.1465 45.3914 47.3809 45.1961 47.3809H41.7391C41.6935 47.3809 41.6707 47.4492 41.6707 47.5859C41.6707 48.2305 41.7195 48.8001 41.8172 49.2949C41.9148 49.7897 42.0809 50.1999 42.3152 50.5254C42.5561 50.8444 42.8523 51.0039 43.2039 51.0039C43.4448 51.0039 43.6466 50.9486 43.8094 50.8379C43.9786 50.7207 44.1023 50.5547 44.1805 50.3398C44.2651 50.125 44.3204 49.9427 44.3465 49.793C44.379 49.6367 44.4083 49.4382 44.4344 49.1973C44.4474 49.0671 44.4897 49.002 44.5613 49.002H45.2254C45.3491 49.002 45.4109 49.1354 45.4109 49.4023V49.5977Z" fill="#0F172A" fill-opacity="0.78"/>
<path d="M49.3984 52C49.2357 52 49.1543 51.8372 49.1543 51.5117V42.7812C49.1543 42.3776 49.2324 42.1758 49.3887 42.1758H49.5742C49.6654 42.1758 49.7337 42.2051 49.7793 42.2637C49.8314 42.3223 49.8737 42.4525 49.9062 42.6543L50.0625 43.9336C50.082 44.0052 50.1048 44.041 50.1309 44.041C50.1569 44.041 50.1764 44.0052 50.1895 43.9336C50.2936 43.5495 50.4271 43.2272 50.5898 42.9668C50.7591 42.7064 50.9414 42.5143 51.1367 42.3906C51.3385 42.2669 51.5273 42.1823 51.7031 42.1367C51.8854 42.0846 52.084 42.0586 52.2988 42.0586C52.748 42.0586 53.1126 42.1725 53.3926 42.4004C53.679 42.6217 53.9036 43.0384 54.0664 43.6504C54.2292 44.2559 54.3105 45.0762 54.3105 46.1113V51.5117C54.3105 51.707 54.291 51.8372 54.252 51.9023C54.2129 51.9674 54.1543 52 54.0762 52H53.2168C53.1387 52 53.0801 51.9674 53.041 51.9023C53.002 51.8372 52.9824 51.707 52.9824 51.5117V45.9062C52.9824 44.9557 52.9043 44.2624 52.748 43.8262C52.5918 43.3835 52.3477 43.1621 52.0156 43.1621C51.5794 43.1621 51.2148 43.4421 50.9219 44.002C50.6289 44.5553 50.4824 45.2259 50.4824 46.0137V51.5117C50.4824 51.707 50.4629 51.8372 50.4238 51.9023C50.3848 51.9674 50.3262 52 50.248 52H49.3984Z" fill="#0F172A" fill-opacity="0.78"/>
<path d="M43.6387 68.1367C43.3978 68.1367 43.1862 68.127 43.0039 68.1074C42.8216 68.0944 42.6165 68.0586 42.3887 68C42.1673 67.9414 41.972 67.8633 41.8027 67.7656C41.6335 67.6615 41.4577 67.5215 41.2754 67.3457C41.0931 67.1634 40.9336 66.9486 40.7969 66.7012C40.6667 66.4538 40.5397 66.151 40.416 65.793C40.2923 65.4284 40.1914 65.0182 40.1133 64.5625C40.0352 64.1068 39.9733 63.5762 39.9277 62.9707C39.8822 62.3652 39.8594 61.6979 39.8594 60.9688C39.8594 60.0703 39.8952 59.263 39.9668 58.5469C40.0449 57.8242 40.1458 57.2155 40.2695 56.7207C40.3997 56.2259 40.5625 55.7995 40.7578 55.4414C40.9596 55.0768 41.1615 54.7936 41.3633 54.5918C41.5716 54.3835 41.8158 54.2207 42.0957 54.1035C42.3757 53.9798 42.6361 53.9017 42.877 53.8691C43.1178 53.8301 43.3945 53.8105 43.707 53.8105C44.293 53.8105 44.7747 53.8952 45.1523 54.0645C45.1589 54.071 45.1719 54.0807 45.1914 54.0938C45.2109 54.1068 45.2272 54.1263 45.2402 54.1523C45.2533 54.1719 45.2598 54.2012 45.2598 54.2402V55.1875C45.2598 55.2656 45.237 55.3047 45.1914 55.3047C45.1849 55.3047 45.1589 55.2982 45.1133 55.2852C45.0677 55.2721 45.0059 55.2559 44.9277 55.2363C44.8561 55.2168 44.7715 55.1973 44.6738 55.1777C44.5762 55.1517 44.4622 55.1322 44.332 55.1191C44.2083 55.1061 44.0879 55.0996 43.9707 55.0996C43.6647 55.0996 43.3978 55.1354 43.1699 55.207C42.9486 55.2721 42.7207 55.4251 42.4863 55.666C42.2585 55.9004 42.0697 56.2259 41.9199 56.6426C41.7767 57.0592 41.6595 57.6322 41.5684 58.3613C41.4772 59.084 41.4316 59.9531 41.4316 60.9688C41.4316 61.9974 41.4707 62.8763 41.5488 63.6055C41.627 64.3281 41.7279 64.901 41.8516 65.3242C41.9818 65.7409 42.1543 66.0664 42.3691 66.3008C42.5905 66.5352 42.8086 66.6882 43.0234 66.7598C43.2383 66.8249 43.502 66.8574 43.8145 66.8574C44.2897 66.8574 44.7031 66.7956 45.0547 66.6719C45.0612 66.6719 45.0742 66.6979 45.0938 66.75C45.1198 66.7956 45.1328 66.8249 45.1328 66.8379V67.7559C45.1328 67.7689 45.1198 67.8014 45.0938 67.8535C45.0742 67.8991 45.0612 67.9251 45.0547 67.9316C44.6901 68.0684 44.2181 68.1367 43.6387 68.1367Z" fill="#0F172A" fill-opacity="0.78"/>
<path d="M50.7855 68.1074C50.46 68.1074 50.1768 68.0586 49.9359 67.9609C49.6951 67.8568 49.4704 67.6777 49.2621 67.4238C49.0603 67.1634 48.904 66.7793 48.7934 66.2715C48.6892 65.7572 48.6371 65.1191 48.6371 64.3574V58.6641C48.6371 58.4688 48.6566 58.3385 48.6957 58.2734C48.7348 58.2083 48.7934 58.1758 48.8715 58.1758H49.7211C49.8057 58.1758 49.8676 58.2083 49.9066 58.2734C49.9457 58.3385 49.9652 58.4688 49.9652 58.6641V64.709C49.9652 65.5553 50.0531 66.151 50.2289 66.4961C50.4112 66.8346 50.6781 67.0039 51.0297 67.0039C51.4464 67.0039 51.7947 66.724 52.0746 66.1641C52.3546 65.5977 52.4945 64.9694 52.4945 64.2793V58.6641C52.4945 58.4688 52.5141 58.3385 52.5531 58.2734C52.5922 58.2083 52.654 58.1758 52.7387 58.1758H53.5785C53.6631 58.1758 53.725 58.2083 53.7641 58.2734C53.8031 58.3385 53.8227 58.4688 53.8227 58.6641V67.3848C53.8227 67.7949 53.7478 68 53.598 68H53.4027C53.3116 68 53.24 67.9707 53.1879 67.9121C53.1423 67.8535 53.1033 67.7201 53.0707 67.5117L52.8949 66.1348C52.8819 66.0501 52.8591 66.0078 52.8266 66.0078C52.8135 66.0078 52.794 66.0534 52.768 66.1445C52.5987 66.8411 52.335 67.3424 51.977 67.6484C51.6189 67.9544 51.2217 68.1074 50.7855 68.1074Z" fill="#0F172A" fill-opacity="0.78"/>
<path d="M57.6492 68C57.4865 68 57.4051 67.7949 57.4051 67.3848V58.8691C57.4051 58.4069 57.4799 58.1758 57.6297 58.1758H57.8836C58.0398 58.1758 58.1375 58.3646 58.1766 58.7422L58.323 60.1387C58.3361 60.2233 58.3589 60.2656 58.3914 60.2656C58.4044 60.2656 58.424 60.2201 58.45 60.1289C58.782 58.7487 59.407 58.0586 60.325 58.0586C60.7417 58.0586 61.0932 58.2083 61.3797 58.5078C61.6661 58.8073 61.894 59.3118 62.0633 60.0215C62.0828 60.0671 62.0991 60.0898 62.1121 60.0898C62.1382 60.0898 62.1577 60.0671 62.1707 60.0215C62.34 59.3574 62.5971 58.8659 62.9422 58.5469C63.2872 58.2214 63.6486 58.0586 64.0262 58.0586C64.2736 58.0586 64.4884 58.0911 64.6707 58.1562C64.8595 58.2148 65.0385 58.332 65.2078 58.5078C65.3836 58.6771 65.5268 58.9115 65.6375 59.2109C65.7482 59.5039 65.8361 59.8945 65.9012 60.3828C65.9663 60.8646 65.9988 61.4375 65.9988 62.1016V67.3848C65.9988 67.7949 65.9174 68 65.7547 68H64.9051C64.7488 68 64.6707 67.7949 64.6707 67.3848V61.8184C64.6707 60.8092 64.5958 60.1159 64.4461 59.7383C64.3029 59.3542 64.0685 59.1621 63.743 59.1621C63.3589 59.1621 63.0333 59.4355 62.7664 59.9824C62.506 60.5228 62.3758 61.2487 62.3758 62.1602V67.3848C62.3758 67.7949 62.2977 68 62.1414 68H61.2918C61.129 68 61.0477 67.7949 61.0477 67.3848V61.9062C61.0477 60.8776 60.9695 60.1647 60.8133 59.7676C60.657 59.3639 60.4161 59.1621 60.0906 59.1621C59.8042 59.1621 59.5568 59.3151 59.3484 59.6211C59.1401 59.9206 58.9839 60.2982 58.8797 60.7539C58.782 61.2096 58.7332 61.7012 58.7332 62.2285V67.3848C58.7332 67.7949 58.6518 68 58.4891 68H57.6492Z" fill="#0F172A" fill-opacity="0.78"/>
<path d="M71.2121 65.8711C71.4855 66.6263 71.8306 67.0039 72.2473 67.0039C72.6639 67.0039 72.9895 66.6816 73.2238 66.0371C73.4647 65.3926 73.5852 64.39 73.5852 63.0293C73.5852 61.7467 73.4647 60.7832 73.2238 60.1387C72.9895 59.4876 72.6704 59.1621 72.2668 59.1621C71.8566 59.1621 71.5083 59.5202 71.2219 60.2363C70.9419 60.9525 70.802 61.8835 70.802 63.0293C70.802 64.1621 70.9387 65.1094 71.2121 65.8711ZM72.5109 68.1074C71.5018 68.1074 70.8085 67.4206 70.4309 66.0469C70.4178 66.0143 70.4048 65.998 70.3918 65.998C70.3658 65.998 70.33 66.1673 70.2844 66.5059C70.2453 66.8379 70.19 67.1699 70.1184 67.502C70.0467 67.834 69.9621 68 69.8645 68H69.6691C69.5389 68 69.4738 67.8079 69.4738 67.4238V54.6504C69.4738 54.1882 69.5552 53.957 69.718 53.957H70.5676C70.6392 53.957 70.6945 54.0221 70.7336 54.1523C70.7792 54.276 70.802 54.4421 70.802 54.6504V59.5332C70.802 59.6178 70.815 59.6602 70.841 59.6602L70.8898 59.6113C71.0786 59.097 71.326 58.7096 71.632 58.4492C71.9445 58.1888 72.2798 58.0586 72.6379 58.0586C72.9504 58.0586 73.2369 58.1432 73.4973 58.3125C73.7577 58.4753 73.9986 58.7422 74.2199 59.1133C74.4478 59.4779 74.6268 60.002 74.757 60.6855C74.8872 61.3626 74.9523 62.1699 74.9523 63.1074C74.9523 63.8301 74.9035 64.4811 74.8059 65.0605C74.7147 65.6335 74.5878 66.1087 74.425 66.4863C74.2688 66.8574 74.0832 67.1699 73.8684 67.4238C73.6535 67.6712 73.4322 67.847 73.2043 67.9512C72.9829 68.0553 72.7518 68.1074 72.5109 68.1074Z" fill="#0F172A" fill-opacity="0.78"/>
<path d="M79.5309 62.5117H82.1285C82.1415 62.5117 82.148 62.4531 82.148 62.3359C82.109 61.2357 81.9885 60.4316 81.7867 59.9238C81.5849 59.4095 81.2724 59.1523 80.8492 59.1523C80.0615 59.1523 79.6122 60.0964 79.5016 61.9844C79.5016 62.3359 79.5113 62.5117 79.5309 62.5117ZM83.232 65.5977C83.232 66.3203 83.04 66.9193 82.6559 67.3945C82.2783 67.8698 81.7151 68.1074 80.9664 68.1074C79.0589 68.1074 78.1051 66.431 78.1051 63.0781C78.1051 62.2513 78.1604 61.5286 78.2711 60.9102C78.3883 60.2852 78.5348 59.7969 78.7105 59.4453C78.8863 59.0872 79.1012 58.8008 79.3551 58.5859C79.609 58.3646 79.8531 58.2214 80.0875 58.1562C80.3284 58.0846 80.5888 58.0488 80.8688 58.0488C82.4964 58.0488 83.3102 59.5918 83.3102 62.6777C83.3102 63.1465 83.2125 63.3809 83.0172 63.3809H79.5602C79.5146 63.3809 79.4918 63.4492 79.4918 63.5859C79.4918 64.2305 79.5406 64.8001 79.6383 65.2949C79.7359 65.7897 79.902 66.1999 80.1363 66.5254C80.3772 66.8444 80.6734 67.0039 81.025 67.0039C81.2659 67.0039 81.4677 66.9486 81.6305 66.8379C81.7997 66.7207 81.9234 66.5547 82.0016 66.3398C82.0862 66.125 82.1415 65.9427 82.1676 65.793C82.2001 65.6367 82.2294 65.4382 82.2555 65.1973C82.2685 65.0671 82.3108 65.002 82.3824 65.002H83.0465C83.1702 65.002 83.232 65.1354 83.232 65.4023V65.5977Z" fill="#0F172A" fill-opacity="0.78"/>
<path d="M87.0195 68C86.8568 68 86.7754 67.7917 86.7754 67.375V58.9277C86.7754 58.4264 86.8405 58.1758 86.9707 58.1758H87.2441C87.3158 58.1758 87.3711 58.2214 87.4102 58.3125C87.4492 58.4036 87.4883 58.5664 87.5273 58.8008L87.7031 60.1484C87.7292 60.2591 87.752 60.3145 87.7715 60.3145C87.7975 60.3145 87.8171 60.2591 87.8301 60.1484C88.0059 59.5039 88.2272 59.0026 88.4941 58.6445C88.7676 58.2865 89.0508 58.1042 89.3438 58.0977H89.5C89.6367 58.0977 89.7311 58.1335 89.7832 58.2051C89.8353 58.2767 89.8613 58.3971 89.8613 58.5664V59.2695C89.8613 59.4258 89.8483 59.5299 89.8223 59.582C89.7962 59.6276 89.7441 59.6504 89.666 59.6504C89.4251 59.6634 89.2852 59.6764 89.2461 59.6895C89.0117 59.7415 88.8034 59.9466 88.6211 60.3047C88.4453 60.6562 88.3151 61.0534 88.2305 61.4961C88.1458 61.9323 88.1035 62.3555 88.1035 62.7656V67.375C88.1035 67.7917 88.0254 68 87.8691 68H87.0195Z" fill="#0F172A" fill-opacity="0.78"/>
<path d="M94.6645 65.8711C94.9379 66.6263 95.2829 67.0039 95.6996 67.0039C96.1163 67.0039 96.4418 66.6816 96.6762 66.0371C96.9171 65.3926 97.0375 64.39 97.0375 63.0293C97.0375 61.7467 96.9171 60.7832 96.6762 60.1387C96.4418 59.4876 96.1228 59.1621 95.7191 59.1621C95.309 59.1621 94.9607 59.5202 94.6742 60.2363C94.3943 60.9525 94.2543 61.8835 94.2543 63.0293C94.2543 64.1621 94.391 65.1094 94.6645 65.8711ZM95.9633 68.1074C94.9542 68.1074 94.2608 67.4206 93.8832 66.0469C93.8702 66.0143 93.8572 65.998 93.8441 65.998C93.8181 65.998 93.7823 66.1673 93.7367 66.5059C93.6977 66.8379 93.6423 67.1699 93.5707 67.502C93.4991 67.834 93.4145 68 93.3168 68H93.1215C92.9913 68 92.9262 67.8079 92.9262 67.4238V54.6504C92.9262 54.1882 93.0076 53.957 93.1703 53.957H94.0199C94.0915 53.957 94.1469 54.0221 94.1859 54.1523C94.2315 54.276 94.2543 54.4421 94.2543 54.6504V59.5332C94.2543 59.6178 94.2673 59.6602 94.2934 59.6602L94.3422 59.6113C94.531 59.097 94.7784 58.7096 95.0844 58.4492C95.3969 58.1888 95.7322 58.0586 96.0902 58.0586C96.4027 58.0586 96.6892 58.1432 96.9496 58.3125C97.21 58.4753 97.4509 58.7422 97.6723 59.1133C97.9001 59.4779 98.0792 60.002 98.2094 60.6855C98.3396 61.3626 98.4047 62.1699 98.4047 63.1074C98.4047 63.8301 98.3559 64.4811 98.2582 65.0605C98.1671 65.6335 98.0401 66.1087 97.8773 66.4863C97.7211 66.8574 97.5355 67.1699 97.3207 67.4238C97.1059 67.6712 96.8845 67.847 96.6566 67.9512C96.4353 68.0553 96.2042 68.1074 95.9633 68.1074Z" fill="#0F172A" fill-opacity="0.78"/>
<path d="M103.784 67.0723C104.298 67.0723 104.702 66.7402 104.995 66.0762C105.288 65.4121 105.434 64.5951 105.434 63.625C105.434 63.1693 105.412 62.9414 105.366 62.9414C105.36 62.9414 105.288 62.9512 105.151 62.9707C105.021 62.9902 104.949 63.0033 104.936 63.0098C104.149 63.1855 103.582 63.4883 103.237 63.918C102.899 64.3477 102.729 64.8978 102.729 65.5684C102.729 66.571 103.081 67.0723 103.784 67.0723ZM103.52 68.1172C102.863 68.1172 102.361 67.9056 102.016 67.4824C101.678 67.0592 101.509 66.457 101.509 65.6758C101.509 65.1029 101.596 64.5983 101.772 64.1621C101.948 63.7259 102.169 63.3939 102.436 63.166C102.703 62.9316 102.999 62.7363 103.325 62.5801C103.651 62.4238 103.953 62.3229 104.233 62.2773C104.513 62.2253 104.767 62.1764 104.995 62.1309C105.223 62.0853 105.36 62.0462 105.405 62.0137V61.4766C105.405 60.7214 105.32 60.1484 105.151 59.7578C104.988 59.3607 104.679 59.1621 104.223 59.1621C103.82 59.1621 103.52 59.276 103.325 59.5039C103.136 59.7253 102.97 60.0768 102.827 60.5586C102.788 60.6693 102.749 60.7441 102.71 60.7832C102.671 60.8223 102.622 60.8353 102.563 60.8223C102.472 60.8027 102.313 60.7572 102.085 60.6855C101.863 60.6139 101.749 60.5618 101.743 60.5293C101.678 60.4642 101.681 60.2884 101.753 60.002C101.87 59.5853 102.023 59.2402 102.212 58.9668C102.401 58.6934 102.667 58.4753 103.012 58.3125C103.364 58.1432 103.79 58.0586 104.292 58.0586C105.119 58.0586 105.731 58.3581 106.128 58.957C106.531 59.5495 106.733 60.5423 106.733 61.9355V67.5215C106.733 67.8405 106.665 68 106.528 68H106.294C106.19 68 106.102 67.8665 106.03 67.5996C105.841 66.8053 105.74 66.3268 105.727 66.1641C105.727 66.1445 105.721 66.1315 105.708 66.125C105.695 66.112 105.682 66.112 105.669 66.125C105.662 66.1315 105.656 66.1445 105.649 66.1641C105.486 66.7956 105.236 67.2806 104.897 67.6191C104.565 67.9512 104.106 68.1172 103.52 68.1172Z" fill="#0F172A" fill-opacity="0.78"/>
<path d="M113.011 68.0195C112.77 68.0195 112.558 68 112.376 67.9609C112.194 67.9154 112.012 67.8275 111.829 67.6973C111.654 67.5671 111.507 67.3913 111.39 67.1699C111.279 66.9421 111.188 66.6426 111.116 66.2715C111.051 65.8939 111.019 65.4479 111.019 64.9336V59.582C111.019 59.4648 110.983 59.4062 110.911 59.4062H110.286C110.13 59.4062 110.052 59.263 110.052 58.9766V58.6055C110.052 58.319 110.13 58.1758 110.286 58.1758H110.911C110.976 58.1758 111.012 58.0879 111.019 57.9121L111.185 54.4551C111.191 54.123 111.273 53.957 111.429 53.957H112.113C112.191 53.957 112.249 53.9928 112.288 54.0645C112.327 54.1296 112.347 54.2598 112.347 54.4551V57.9121C112.347 58.0879 112.386 58.1758 112.464 58.1758H113.724C113.802 58.1758 113.861 58.2051 113.9 58.2637C113.939 58.3223 113.958 58.4362 113.958 58.6055V58.9766C113.958 59.1458 113.939 59.2598 113.9 59.3184C113.861 59.377 113.802 59.4062 113.724 59.4062H112.464C112.418 59.4062 112.386 59.416 112.366 59.4355C112.353 59.4551 112.347 59.5039 112.347 59.582V64.9336C112.347 65.4805 112.392 65.9036 112.484 66.2031C112.581 66.5026 112.689 66.6914 112.806 66.7695C112.93 66.8411 113.086 66.877 113.275 66.877H113.948C114.124 66.877 114.212 66.9746 114.212 67.1699V67.6875C114.212 67.9089 114.118 68.0195 113.929 68.0195H113.011Z" fill="#0F172A" fill-opacity="0.78"/>
<path d="M119.923 68.1074H119.884C119.67 68.1074 119.474 68.0911 119.298 68.0586C119.123 68.0326 118.934 67.9772 118.732 67.8926C118.53 67.8014 118.351 67.6842 118.195 67.541C118.039 67.3913 117.886 67.1895 117.736 66.9355C117.586 66.6751 117.463 66.3724 117.365 66.0273C117.267 65.6758 117.189 65.2493 117.13 64.748C117.072 64.2402 117.043 63.6706 117.043 63.0391C117.043 62.1992 117.098 61.4701 117.209 60.8516C117.319 60.2331 117.459 59.748 117.629 59.3965C117.798 59.0449 118.009 58.765 118.263 58.5566C118.524 58.3483 118.771 58.2148 119.005 58.1562C119.24 58.0911 119.507 58.0586 119.806 58.0586C120.242 58.0586 120.653 58.1302 121.037 58.2734C121.056 58.2734 121.079 58.2897 121.105 58.3223C121.131 58.3548 121.144 58.3809 121.144 58.4004V59.2402C121.144 59.2728 121.131 59.3053 121.105 59.3379C121.079 59.3704 121.056 59.3835 121.037 59.377C120.659 59.2598 120.353 59.2012 120.119 59.2012C119.923 59.2012 119.761 59.2174 119.63 59.25C119.5 59.2826 119.354 59.3704 119.191 59.5137C119.028 59.6569 118.898 59.862 118.8 60.1289C118.703 60.3893 118.618 60.7669 118.546 61.2617C118.481 61.75 118.449 62.3424 118.449 63.0391C118.449 63.7422 118.478 64.3411 118.537 64.8359C118.602 65.3307 118.68 65.7148 118.771 65.9883C118.869 66.2617 118.996 66.4733 119.152 66.623C119.315 66.7728 119.464 66.8672 119.601 66.9062C119.744 66.9388 119.92 66.9551 120.129 66.9551C120.389 66.9551 120.692 66.8997 121.037 66.7891C121.056 66.7956 121.079 66.8216 121.105 66.8672C121.138 66.9062 121.154 66.9388 121.154 66.9648V67.7461C121.154 67.7721 121.138 67.8079 121.105 67.8535C121.079 67.8926 121.056 67.9154 121.037 67.9219C120.698 68.0456 120.327 68.1074 119.923 68.1074Z" fill="#0F172A" fill-opacity="0.78"/>
<path d="M124.521 68C124.443 68 124.385 67.9674 124.346 67.9023C124.307 67.8372 124.287 67.707 124.287 67.5117V54.4844C124.287 54.1328 124.365 53.957 124.521 53.957H125.371C125.534 53.957 125.615 54.1328 125.615 54.4844V59.5918C125.615 59.6699 125.628 59.709 125.654 59.709C125.674 59.709 125.693 59.6927 125.713 59.6602C125.915 59.1068 126.188 58.7031 126.533 58.4492C126.878 58.1888 127.23 58.0586 127.588 58.0586C128.018 58.0586 128.369 58.179 128.643 58.4199C128.916 58.6543 129.134 59.0938 129.297 59.7383C129.46 60.3763 129.541 61.2357 129.541 62.3164V67.5117C129.541 67.8372 129.46 68 129.297 68H128.447C128.369 68 128.311 67.9674 128.271 67.9023C128.232 67.8372 128.213 67.707 128.213 67.5117V62.082C128.213 61.0664 128.125 60.3275 127.949 59.8652C127.773 59.3965 127.507 59.1621 127.148 59.1621C126.732 59.1621 126.37 59.4583 126.064 60.0508C125.765 60.6432 125.615 61.3561 125.615 62.1895V67.5117C125.615 67.707 125.596 67.8372 125.557 67.9023C125.518 67.9674 125.459 68 125.381 68H124.521Z" fill="#0F172A" fill-opacity="0.78"/>
</svg>
